<svg width="20" height="20" viewBox="0 0 20 20" fill="none" xmlns="http://www.w3.org/2000/svg">
<path d="M11 2.75C11 3.16563 11.3344 3.5 11.75 3.5H15.4406L8.22188 10.7188C7.92813 11.0125 7.92813 11.4875 8.22188 11.7781C8.51563 12.0687 8.99062 12.0719 9.28125 11.7781L16.5 4.55938V8.25C16.5 8.66563 16.8344 9 17.25 9C17.6656 9 18 8.66563 18 8.25V2.75C18 2.33437 17.6656 2 17.25 2L11.75 2C11.3344 2 11 2.33437 11 2.75ZM4.5 5C3.11875 5 2 6.11875 2 7.5V15.5C2 16.8813 3.11875 18 4.5 18H12.5C13.8813 18 15 16.8813 15 15.5V12.75C15 12.3344 14.6656 12 14.25 12C13.8344 12 13.5 12.3344 13.5 12.75V15.5C13.5 16.0531 13.0531 16.5 12.5 16.5H4.5C3.94687 16.5 3.5 16.0531 3.5 15.5V7.5C3.5 6.94687 3.94687 6.5 4.5 6.5H7.25C7.66563 6.5 8 6.16563 8 5.75C8 5.33437 7.66563 5 7.25 5H4.5Z" fill="#80C8FF"/>
</svg>
