<svg width="20" height="20" viewBox="0 0 20 20" fill="none" xmlns="http://www.w3.org/2000/svg">
<path d="M14.7812 8.53125L10.5312 12.7812C10.2375 13.075 9.7625 13.075 9.47188 12.7812L5.21875 8.53125C4.925 8.2375 4.925 7.7625 5.21875 7.47188C5.5125 7.18125 5.9875 7.17813 6.27813 7.47188L9.24687 10.4406V2.75C9.24687 2.33437 9.58125 2 9.99687 2C10.4125 2 10.7469 2.33437 10.7469 2.75V10.4406L13.7156 7.47188C14.0094 7.17813 14.4844 7.17813 14.775 7.47188C15.0656 7.76563 15.0687 8.24062 14.775 8.53125H14.7812ZM4.5 12.75V15C4.5 15.8281 5.17188 16.5 6 16.5H14C14.8281 16.5 15.5 15.8281 15.5 15V12.75C15.5 12.3344 15.8344 12 16.25 12C16.6656 12 17 12.3344 17 12.75V15C17 16.6562 15.6562 18 14 18H6C4.34375 18 3 16.6562 3 15V12.75C3 12.3344 3.33437 12 3.75 12C4.16563 12 4.5 12.3344 4.5 12.75Z" fill="#80C8FF"/>
</svg>
