<svg width="20" height="20" viewBox="0 0 20 20" fill="none" xmlns="http://www.w3.org/2000/svg">
<path d="M11.5 4.5C11.5 4.69698 11.4612 4.89204 11.3858 5.07403C11.3104 5.25601 11.1999 5.42137 11.0607 5.56066C10.9214 5.69995 10.756 5.81044 10.574 5.88582C10.392 5.9612 10.197 6 10 6C9.80302 6 9.60796 5.9612 9.42597 5.88582C9.24399 5.81044 9.07863 5.69995 8.93934 5.56066C8.80005 5.42137 8.68956 5.25601 8.61418 5.07403C8.5388 4.89204 8.5 4.69698 8.5 4.5C8.5 4.30302 8.5388 4.10796 8.61418 3.92597C8.68956 3.74399 8.80005 3.57863 8.93934 3.43934C9.07863 3.30005 9.24399 3.18956 9.42597 3.11418C9.60796 3.0388 9.80302 3 10 3C10.197 3 10.392 3.0388 10.574 3.11418C10.756 3.18956 10.9214 3.30005 11.0607 3.43934C11.1999 3.57863 11.3104 3.74399 11.3858 3.92597C11.4612 4.10796 11.5 4.30302 11.5 4.5ZM8.5 10C8.5 9.17188 9.17188 8.5 10 8.5C10.8281 8.5 11.5 9.17188 11.5 10C11.5 10.8281 10.8281 11.5 10 11.5C9.17188 11.5 8.5 10.8281 8.5 10ZM11.5 15.5C11.5 16.3281 10.8281 17 10 17C9.17188 17 8.5 16.3281 8.5 15.5C8.5 14.6719 9.17188 14 10 14C10.8281 14 11.5 14.6719 11.5 15.5Z" fill="white"/>
</svg>
