<svg width="25" height="25" viewBox="0 0 25 25" fill="none" xmlns="http://www.w3.org/2000/svg">
<path d="M16.875 10.625C16.875 8.9674 16.2165 7.37769 15.0444 6.20558C13.8723 5.03348 12.2826 4.375 10.625 4.375C8.9674 4.375 7.37769 5.03348 6.20558 6.20558C5.03348 7.37769 4.375 8.9674 4.375 10.625C4.375 12.2826 5.03348 13.8723 6.20558 15.0444C7.37769 16.2165 8.9674 16.875 10.625 16.875C12.2826 16.875 13.8723 16.2165 15.0444 15.0444C16.2165 13.8723 16.875 12.2826 16.875 10.625ZM15.668 16.9961C14.2852 18.0938 12.5312 18.75 10.625 18.75C6.13672 18.75 2.5 15.1133 2.5 10.625C2.5 6.13672 6.13672 2.5 10.625 2.5C15.1133 2.5 18.75 6.13672 18.75 10.625C18.75 12.5312 18.0938 14.2852 16.9961 15.668L22.2266 20.8984C22.5937 21.2656 22.5937 21.8594 22.2266 22.2227C21.8594 22.5859 21.2656 22.5898 20.9023 22.2227L15.668 16.9961Z" fill="white" fill-opacity="0.5"/>
</svg>
