<svg width="100" height="140" viewBox="0 0 100 140" fill="none" xmlns="http://www.w3.org/2000/svg">
<rect width="100" height="140" rx="6" fill="white"/>
<path d="M52.6117 76.9312L50.0562 79.4867L47.5 76.9312L50.0562 74.375L52.6117 76.9312Z" fill="#467AF8"/>
<path fill-rule="evenodd" clip-rule="evenodd" d="M50 40C66.5685 40 80 53.4315 80 70C80 86.5685 66.5685 100 50 100C33.4315 100 20 86.5685 20 70C20 53.4315 33.4315 40 50 40ZM41.0162 82.6886C38.3473 82.2871 33.7801 82.4949 33.9056 83.6243C33.9518 84.0398 37.6098 84.0373 37.5201 85.4218C37.4117 87.0957 30.3845 86.8082 31.0718 83.2489C28.8686 82.995 27.3879 85.4711 28.5089 86.1658C28.5266 86.1766 28.5449 86.1875 28.5638 86.1975C32.8178 88.4483 37.91 89.4916 41.0162 89.6875H42.5C41.875 89.0625 41.0162 86.999 41.0162 85.625V82.6886ZM44.375 56.25V85.1776C44.375 87.8125 46.7052 89.6875 48.8013 89.6875H52.7167L55.7605 84.8651V53.7933C55.7243 51.7287 53.9482 50.0001 51.875 50H48.4375L44.375 56.25ZM28.4375 57.5C28.1616 59.2799 27.6145 60.4187 30.3583 64.5288L41.0809 79.4696V70.0946L34.4647 61.3446C32.6025 59.1022 30.5409 58.4283 28.4375 57.5ZM59.0625 66.875L60.1398 66.8359L59.9677 68.0469L61.0449 68.0078L60.8728 69.2188L61.9501 69.1797L61.778 70.3906L62.8552 70.3516L62.6831 71.5625L63.7604 71.5234L63.5883 72.7344L64.6655 72.6953L64.4934 73.9062L65.5707 73.8672L65.3986 75.0781L66.4758 75.0391L66.3037 76.25C68.1659 78.4924 69.1827 78.75 71.3702 79.375C71.6462 77.5951 72.239 75.6726 69.4952 71.5625L59.0625 57.5V66.875ZM57.1875 49.375C58.602 50.7895 58.7679 51.9323 59.0625 53.8055H70L71.25 53.1812V52.4445L70 51.8195H61.25L57.1875 49.375Z" fill="#467AF8"/>
</svg>
