<svg width="143" height="54" viewBox="0 0 143 54" fill="none" xmlns="http://www.w3.org/2000/svg">
<mask id="path-1-outside-1_68_3" maskUnits="userSpaceOnUse" x="0" y="0" width="143" height="46" fill="black">
<rect fill="white" width="143" height="46"/>
<path d="M20.6864 31.0575L19.1438 32.592L17.6007 31.0575L19.1438 29.5226L20.6864 31.0575Z"/>
<path fill-rule="evenodd" clip-rule="evenodd" d="M19.1099 8.8812C29.1117 8.8812 37.2197 16.9465 37.2197 26.8955C37.2197 36.8445 29.1117 44.9098 19.1099 44.9098C9.10806 44.9098 1 36.8445 1 26.8955C1 16.9465 9.10806 8.8812 19.1099 8.8812ZM13.6867 34.5147C12.0756 34.2736 9.31855 34.3984 9.39431 35.0765C9.42219 35.3261 11.6304 35.3245 11.5762 36.1559C11.5108 37.1611 7.26873 36.9884 7.68361 34.8511C6.35365 34.6987 5.45981 36.1855 6.13651 36.6027C6.14721 36.6092 6.15821 36.6157 6.16967 36.6217C8.73764 37.9732 11.8116 38.5997 13.6867 38.7174H14.5824C14.2051 38.3421 13.6867 37.103 13.6867 36.2779V34.5147ZM15.7143 18.6389V36.0093C15.7143 37.5915 17.1209 38.7174 18.3862 38.7174H20.7498L22.5873 35.8216V17.1638C22.5654 15.924 21.4933 14.886 20.2417 14.886H18.1666L15.7143 18.6389ZM6.0934 19.3895C5.92684 20.4583 5.59659 21.1422 7.2529 23.6102L13.7258 32.5818V26.9523L9.73181 21.6981C8.60767 20.3516 7.36313 19.947 6.0934 19.3895ZM24.5806 25.019L25.2309 24.9956L25.127 25.7227L25.7773 25.6992L25.6734 26.4264L26.3237 26.4029L26.2198 27.1301L26.8701 27.1066L26.7662 27.8337L27.4165 27.8103L27.3126 28.5374L27.9629 28.514L27.859 29.2411L28.5093 29.2176L28.4054 29.9448L29.0557 29.9213L28.9518 30.6485C30.0759 31.995 30.6897 32.1497 32.0103 32.525C32.1768 31.4562 32.5347 30.3018 30.8784 27.8337L24.5806 19.3895V25.019ZM23.4487 14.5107C24.3026 15.36 24.4027 16.0462 24.5806 17.1711H31.1831L31.9377 16.7962V16.3538L31.1831 15.9785H25.9011L23.4487 14.5107Z"/>
<path d="M92.6378 38.2622C92.6379 40.2594 94.2655 41.8784 96.2732 41.8785H100.277V45H96.2732C92.3651 44.9999 89.1969 41.8481 89.1969 37.9606V31.0938H92.6378V38.2622Z"/>
<path d="M106.488 38.2622C106.488 40.2594 108.116 41.8785 110.124 41.8785H114.127V45H110.124C106.215 45 103.047 41.8482 103.047 37.9606V31.0938H106.488V38.2622Z"/>
<path d="M142 45H137.823L133.517 34.7105V30.0852L133.542 30.1098L134.507 29.1492L138.797 39.188H138.927C138.884 38.3413 138.84 37.5447 138.797 36.7984C138.768 36.0522 138.747 35.3562 138.732 34.7105C138.718 34.0503 138.711 33.4475 138.711 32.9021V10.0841H142V45Z"/>
<path d="M49.2982 9.50321C50.5044 9.50322 51.6525 9.66829 52.7424 9.99872C53.8469 10.3134 54.7986 10.6991 55.5979 11.1554L54.4646 14.6012C53.5781 14.082 52.6988 13.6967 51.8268 13.4449C50.9694 13.1774 50.1482 13.0436 49.3634 13.0436C48.3898 13.0436 47.5541 13.2716 46.8565 13.7279C46.1735 14.1842 45.643 14.8136 45.2652 15.6161C44.9019 16.4028 44.7203 17.3234 44.7203 18.3777C44.7203 19.5893 44.8803 20.5885 45.2 21.3753C45.5342 22.162 46.0647 22.8624 46.7913 23.4761C47.5324 24.0897 48.5062 24.7505 49.7123 25.4585C51.0929 26.2452 52.241 27.0949 53.1566 28.0075C54.0721 28.9044 54.755 29.9273 55.2055 31.0759C55.656 32.2245 55.8812 33.5621 55.8812 35.0883C55.8812 37.0395 55.5327 38.7626 54.8352 40.2575C54.1522 41.7365 53.1857 42.8932 51.9359 43.7271C50.7007 44.5611 49.2401 44.978 47.5543 44.978C46.726 44.978 45.9264 44.9229 45.1561 44.8127C44.386 44.7183 43.6522 44.5609 42.9547 44.3407C42.2716 44.1204 41.6176 43.845 40.9927 43.5146V39.6201C41.9809 40.218 43.049 40.6743 44.1971 40.989C45.3597 41.3037 46.4353 41.4611 47.4235 41.4611C48.4844 41.461 49.3781 41.1938 50.1047 40.6588C50.8313 40.1081 51.3834 39.3764 51.7613 38.4638C52.1536 37.5512 52.35 36.5438 52.35 35.4424C52.35 34.2781 52.19 33.3026 51.8703 32.5159C51.5506 31.7134 51.0274 30.9895 50.3007 30.3443C49.5741 29.6992 48.5932 29.0304 47.358 28.3381C46.4279 27.7874 45.585 27.2208 44.8293 26.6386C44.0736 26.0564 43.4268 25.4035 42.8891 24.6797C42.3514 23.9401 41.9373 23.0747 41.6467 22.0834C41.356 21.0921 41.2108 19.9119 41.2108 18.543C41.1817 16.7335 41.5086 15.1522 42.1916 13.799C42.8892 12.43 43.8484 11.3675 45.0692 10.6122C46.3044 9.85701 47.7142 9.48747 49.2982 9.50321Z"/>
<path d="M64.2671 25.9276C64.2745 25.914 70.1385 15.1834 73.053 9.9551H76.7968L64.2671 31.9551V44.871H60.8261V9.9551H64.2671V25.9276Z"/>
<path d="M77.208 44.871H73.3563L68.107 30.1226L70.3144 26.6782L77.208 44.871Z"/>
<path d="M84.6849 44.871H81.2226V9.73997H84.6849V44.871Z"/>
<path d="M133.517 20.2446V25.2635L132.659 26.1164L128.237 15.7671H128.107C128.15 16.6138 128.193 17.4104 128.237 18.1567C128.266 18.9029 128.287 19.5989 128.302 20.2446C128.316 20.9048 128.323 21.5076 128.323 22.053V44.871H125.034V9.9551H129.21L133.517 20.2446Z"/>
<path d="M120.532 35.9159L117.092 40.7376V10.0841H120.532V35.9159Z"/>
<path d="M114.176 29.7407L111.728 32.1761L109.279 29.7407L111.728 27.3053L114.176 29.7407Z"/>
<path d="M92.6378 28.683H89.1969V10.0841H92.6378V28.683Z"/>
<path d="M106.488 28.683H103.047V10.0841H106.488V28.683Z"/>
<path d="M113.456 1C117.241 1 120.331 3.95578 120.523 7.67326H117.09C117.055 5.70579 115.442 4.1215 113.456 4.1215V1Z"/>
</mask>
<path d="M20.6864 31.0575L19.1438 32.592L17.6007 31.0575L19.1438 29.5226L20.6864 31.0575Z" fill="#467AF8"/>
<path fill-rule="evenodd" clip-rule="evenodd" d="M19.1099 8.8812C29.1117 8.8812 37.2197 16.9465 37.2197 26.8955C37.2197 36.8445 29.1117 44.9098 19.1099 44.9098C9.10806 44.9098 1 36.8445 1 26.8955C1 16.9465 9.10806 8.8812 19.1099 8.8812ZM13.6867 34.5147C12.0756 34.2736 9.31855 34.3984 9.39431 35.0765C9.42219 35.3261 11.6304 35.3245 11.5762 36.1559C11.5108 37.1611 7.26873 36.9884 7.68361 34.8511C6.35365 34.6987 5.45981 36.1855 6.13651 36.6027C6.14721 36.6092 6.15821 36.6157 6.16967 36.6217C8.73764 37.9732 11.8116 38.5997 13.6867 38.7174H14.5824C14.2051 38.3421 13.6867 37.103 13.6867 36.2779V34.5147ZM15.7143 18.6389V36.0093C15.7143 37.5915 17.1209 38.7174 18.3862 38.7174H20.7498L22.5873 35.8216V17.1638C22.5654 15.924 21.4933 14.886 20.2417 14.886H18.1666L15.7143 18.6389ZM6.0934 19.3895C5.92684 20.4583 5.59659 21.1422 7.2529 23.6102L13.7258 32.5818V26.9523L9.73181 21.6981C8.60767 20.3516 7.36313 19.947 6.0934 19.3895ZM24.5806 25.019L25.2309 24.9956L25.127 25.7227L25.7773 25.6992L25.6734 26.4264L26.3237 26.4029L26.2198 27.1301L26.8701 27.1066L26.7662 27.8337L27.4165 27.8103L27.3126 28.5374L27.9629 28.514L27.859 29.2411L28.5093 29.2176L28.4054 29.9448L29.0557 29.9213L28.9518 30.6485C30.0759 31.995 30.6897 32.1497 32.0103 32.525C32.1768 31.4562 32.5347 30.3018 30.8784 27.8337L24.5806 19.3895V25.019ZM23.4487 14.5107C24.3026 15.36 24.4027 16.0462 24.5806 17.1711H31.1831L31.9377 16.7962V16.3538L31.1831 15.9785H25.9011L23.4487 14.5107Z" fill="#467AF8"/>
<path d="M92.6378 38.2622C92.6379 40.2594 94.2655 41.8784 96.2732 41.8785H100.277V45H96.2732C92.3651 44.9999 89.1969 41.8481 89.1969 37.9606V31.0938H92.6378V38.2622Z" fill="#467AF8"/>
<path d="M106.488 38.2622C106.488 40.2594 108.116 41.8785 110.124 41.8785H114.127V45H110.124C106.215 45 103.047 41.8482 103.047 37.9606V31.0938H106.488V38.2622Z" fill="#467AF8"/>
<path d="M142 45H137.823L133.517 34.7105V30.0852L133.542 30.1098L134.507 29.1492L138.797 39.188H138.927C138.884 38.3413 138.84 37.5447 138.797 36.7984C138.768 36.0522 138.747 35.3562 138.732 34.7105C138.718 34.0503 138.711 33.4475 138.711 32.9021V10.0841H142V45Z" fill="#467AF8"/>
<path d="M49.2982 9.50321C50.5044 9.50322 51.6525 9.66829 52.7424 9.99872C53.8469 10.3134 54.7986 10.6991 55.5979 11.1554L54.4646 14.6012C53.5781 14.082 52.6988 13.6967 51.8268 13.4449C50.9694 13.1774 50.1482 13.0436 49.3634 13.0436C48.3898 13.0436 47.5541 13.2716 46.8565 13.7279C46.1735 14.1842 45.643 14.8136 45.2652 15.6161C44.9019 16.4028 44.7203 17.3234 44.7203 18.3777C44.7203 19.5893 44.8803 20.5885 45.2 21.3753C45.5342 22.162 46.0647 22.8624 46.7913 23.4761C47.5324 24.0897 48.5062 24.7505 49.7123 25.4585C51.0929 26.2452 52.241 27.0949 53.1566 28.0075C54.0721 28.9044 54.755 29.9273 55.2055 31.0759C55.656 32.2245 55.8812 33.5621 55.8812 35.0883C55.8812 37.0395 55.5327 38.7626 54.8352 40.2575C54.1522 41.7365 53.1857 42.8932 51.9359 43.7271C50.7007 44.5611 49.2401 44.978 47.5543 44.978C46.726 44.978 45.9264 44.9229 45.1561 44.8127C44.386 44.7183 43.6522 44.5609 42.9547 44.3407C42.2716 44.1204 41.6176 43.845 40.9927 43.5146V39.6201C41.9809 40.218 43.049 40.6743 44.1971 40.989C45.3597 41.3037 46.4353 41.4611 47.4235 41.4611C48.4844 41.461 49.3781 41.1938 50.1047 40.6588C50.8313 40.1081 51.3834 39.3764 51.7613 38.4638C52.1536 37.5512 52.35 36.5438 52.35 35.4424C52.35 34.2781 52.19 33.3026 51.8703 32.5159C51.5506 31.7134 51.0274 30.9895 50.3007 30.3443C49.5741 29.6992 48.5932 29.0304 47.358 28.3381C46.4279 27.7874 45.585 27.2208 44.8293 26.6386C44.0736 26.0564 43.4268 25.4035 42.8891 24.6797C42.3514 23.9401 41.9373 23.0747 41.6467 22.0834C41.356 21.0921 41.2108 19.9119 41.2108 18.543C41.1817 16.7335 41.5086 15.1522 42.1916 13.799C42.8892 12.43 43.8484 11.3675 45.0692 10.6122C46.3044 9.85701 47.7142 9.48747 49.2982 9.50321Z" fill="#467AF8"/>
<path d="M64.2671 25.9276C64.2745 25.914 70.1385 15.1834 73.053 9.9551H76.7968L64.2671 31.9551V44.871H60.8261V9.9551H64.2671V25.9276Z" fill="#467AF8"/>
<path d="M77.208 44.871H73.3563L68.107 30.1226L70.3144 26.6782L77.208 44.871Z" fill="#467AF8"/>
<path d="M84.6849 44.871H81.2226V9.73997H84.6849V44.871Z" fill="#467AF8"/>
<path d="M133.517 20.2446V25.2635L132.659 26.1164L128.237 15.7671H128.107C128.15 16.6138 128.193 17.4104 128.237 18.1567C128.266 18.9029 128.287 19.5989 128.302 20.2446C128.316 20.9048 128.323 21.5076 128.323 22.053V44.871H125.034V9.9551H129.21L133.517 20.2446Z" fill="#467AF8"/>
<path d="M120.532 35.9159L117.092 40.7376V10.0841H120.532V35.9159Z" fill="#467AF8"/>
<path d="M114.176 29.7407L111.728 32.1761L109.279 29.7407L111.728 27.3053L114.176 29.7407Z" fill="#467AF8"/>
<path d="M92.6378 28.683H89.1969V10.0841H92.6378V28.683Z" fill="#467AF8"/>
<path d="M106.488 28.683H103.047V10.0841H106.488V28.683Z" fill="#467AF8"/>
<path d="M113.456 1C117.241 1 120.331 3.95578 120.523 7.67326H117.09C117.055 5.70579 115.442 4.1215 113.456 4.1215V1Z" fill="#467AF8"/>
<path d="M20.6864 31.0575L19.1438 32.592L17.6007 31.0575L19.1438 29.5226L20.6864 31.0575Z" stroke="#18191B" stroke-width="2" mask="url(#path-1-outside-1_68_3)"/>
<path fill-rule="evenodd" clip-rule="evenodd" d="M19.1099 8.8812C29.1117 8.8812 37.2197 16.9465 37.2197 26.8955C37.2197 36.8445 29.1117 44.9098 19.1099 44.9098C9.10806 44.9098 1 36.8445 1 26.8955C1 16.9465 9.10806 8.8812 19.1099 8.8812ZM13.6867 34.5147C12.0756 34.2736 9.31855 34.3984 9.39431 35.0765C9.42219 35.3261 11.6304 35.3245 11.5762 36.1559C11.5108 37.1611 7.26873 36.9884 7.68361 34.8511C6.35365 34.6987 5.45981 36.1855 6.13651 36.6027C6.14721 36.6092 6.15821 36.6157 6.16967 36.6217C8.73764 37.9732 11.8116 38.5997 13.6867 38.7174H14.5824C14.2051 38.3421 13.6867 37.103 13.6867 36.2779V34.5147ZM15.7143 18.6389V36.0093C15.7143 37.5915 17.1209 38.7174 18.3862 38.7174H20.7498L22.5873 35.8216V17.1638C22.5654 15.924 21.4933 14.886 20.2417 14.886H18.1666L15.7143 18.6389ZM6.0934 19.3895C5.92684 20.4583 5.59659 21.1422 7.2529 23.6102L13.7258 32.5818V26.9523L9.73181 21.6981C8.60767 20.3516 7.36313 19.947 6.0934 19.3895ZM24.5806 25.019L25.2309 24.9956L25.127 25.7227L25.7773 25.6992L25.6734 26.4264L26.3237 26.4029L26.2198 27.1301L26.8701 27.1066L26.7662 27.8337L27.4165 27.8103L27.3126 28.5374L27.9629 28.514L27.859 29.2411L28.5093 29.2176L28.4054 29.9448L29.0557 29.9213L28.9518 30.6485C30.0759 31.995 30.6897 32.1497 32.0103 32.525C32.1768 31.4562 32.5347 30.3018 30.8784 27.8337L24.5806 19.3895V25.019ZM23.4487 14.5107C24.3026 15.36 24.4027 16.0462 24.5806 17.1711H31.1831L31.9377 16.7962V16.3538L31.1831 15.9785H25.9011L23.4487 14.5107Z" stroke="#18191B" stroke-width="2" mask="url(#path-1-outside-1_68_3)"/>
<path d="M92.6378 38.2622C92.6379 40.2594 94.2655 41.8784 96.2732 41.8785H100.277V45H96.2732C92.3651 44.9999 89.1969 41.8481 89.1969 37.9606V31.0938H92.6378V38.2622Z" stroke="#18191B" stroke-width="2" mask="url(#path-1-outside-1_68_3)"/>
<path d="M106.488 38.2622C106.488 40.2594 108.116 41.8785 110.124 41.8785H114.127V45H110.124C106.215 45 103.047 41.8482 103.047 37.9606V31.0938H106.488V38.2622Z" stroke="#18191B" stroke-width="2" mask="url(#path-1-outside-1_68_3)"/>
<path d="M142 45H137.823L133.517 34.7105V30.0852L133.542 30.1098L134.507 29.1492L138.797 39.188H138.927C138.884 38.3413 138.84 37.5447 138.797 36.7984C138.768 36.0522 138.747 35.3562 138.732 34.7105C138.718 34.0503 138.711 33.4475 138.711 32.9021V10.0841H142V45Z" stroke="#18191B" stroke-width="2" mask="url(#path-1-outside-1_68_3)"/>
<path d="M49.2982 9.50321C50.5044 9.50322 51.6525 9.66829 52.7424 9.99872C53.8469 10.3134 54.7986 10.6991 55.5979 11.1554L54.4646 14.6012C53.5781 14.082 52.6988 13.6967 51.8268 13.4449C50.9694 13.1774 50.1482 13.0436 49.3634 13.0436C48.3898 13.0436 47.5541 13.2716 46.8565 13.7279C46.1735 14.1842 45.643 14.8136 45.2652 15.6161C44.9019 16.4028 44.7203 17.3234 44.7203 18.3777C44.7203 19.5893 44.8803 20.5885 45.2 21.3753C45.5342 22.162 46.0647 22.8624 46.7913 23.4761C47.5324 24.0897 48.5062 24.7505 49.7123 25.4585C51.0929 26.2452 52.241 27.0949 53.1566 28.0075C54.0721 28.9044 54.755 29.9273 55.2055 31.0759C55.656 32.2245 55.8812 33.5621 55.8812 35.0883C55.8812 37.0395 55.5327 38.7626 54.8352 40.2575C54.1522 41.7365 53.1857 42.8932 51.9359 43.7271C50.7007 44.5611 49.2401 44.978 47.5543 44.978C46.726 44.978 45.9264 44.9229 45.1561 44.8127C44.386 44.7183 43.6522 44.5609 42.9547 44.3407C42.2716 44.1204 41.6176 43.845 40.9927 43.5146V39.6201C41.9809 40.218 43.049 40.6743 44.1971 40.989C45.3597 41.3037 46.4353 41.4611 47.4235 41.4611C48.4844 41.461 49.3781 41.1938 50.1047 40.6588C50.8313 40.1081 51.3834 39.3764 51.7613 38.4638C52.1536 37.5512 52.35 36.5438 52.35 35.4424C52.35 34.2781 52.19 33.3026 51.8703 32.5159C51.5506 31.7134 51.0274 30.9895 50.3007 30.3443C49.5741 29.6992 48.5932 29.0304 47.358 28.3381C46.4279 27.7874 45.585 27.2208 44.8293 26.6386C44.0736 26.0564 43.4268 25.4035 42.8891 24.6797C42.3514 23.9401 41.9373 23.0747 41.6467 22.0834C41.356 21.0921 41.2108 19.9119 41.2108 18.543C41.1817 16.7335 41.5086 15.1522 42.1916 13.799C42.8892 12.43 43.8484 11.3675 45.0692 10.6122C46.3044 9.85701 47.7142 9.48747 49.2982 9.50321Z" stroke="#18191B" stroke-width="2" mask="url(#path-1-outside-1_68_3)"/>
<path d="M64.2671 25.9276C64.2745 25.914 70.1385 15.1834 73.053 9.9551H76.7968L64.2671 31.9551V44.871H60.8261V9.9551H64.2671V25.9276Z" stroke="#18191B" stroke-width="2" mask="url(#path-1-outside-1_68_3)"/>
<path d="M77.208 44.871H73.3563L68.107 30.1226L70.3144 26.6782L77.208 44.871Z" stroke="#18191B" stroke-width="2" mask="url(#path-1-outside-1_68_3)"/>
<path d="M84.6849 44.871H81.2226V9.73997H84.6849V44.871Z" stroke="#18191B" stroke-width="2" mask="url(#path-1-outside-1_68_3)"/>
<path d="M133.517 20.2446V25.2635L132.659 26.1164L128.237 15.7671H128.107C128.15 16.6138 128.193 17.4104 128.237 18.1567C128.266 18.9029 128.287 19.5989 128.302 20.2446C128.316 20.9048 128.323 21.5076 128.323 22.053V44.871H125.034V9.9551H129.21L133.517 20.2446Z" stroke="#18191B" stroke-width="2" mask="url(#path-1-outside-1_68_3)"/>
<path d="M120.532 35.9159L117.092 40.7376V10.0841H120.532V35.9159Z" stroke="#18191B" stroke-width="2" mask="url(#path-1-outside-1_68_3)"/>
<path d="M114.176 29.7407L111.728 32.1761L109.279 29.7407L111.728 27.3053L114.176 29.7407Z" stroke="#18191B" stroke-width="2" mask="url(#path-1-outside-1_68_3)"/>
<path d="M92.6378 28.683H89.1969V10.0841H92.6378V28.683Z" stroke="#18191B" stroke-width="2" mask="url(#path-1-outside-1_68_3)"/>
<path d="M106.488 28.683H103.047V10.0841H106.488V28.683Z" stroke="#18191B" stroke-width="2" mask="url(#path-1-outside-1_68_3)"/>
<path d="M113.456 1C117.241 1 120.331 3.95578 120.523 7.67326H117.09C117.055 5.70579 115.442 4.1215 113.456 4.1215V1Z" stroke="#18191B" stroke-width="2" mask="url(#path-1-outside-1_68_3)"/>
</svg>
