<svg width="20" height="20" viewBox="0 0 20 20" fill="none" xmlns="http://www.w3.org/2000/svg">
<path d="M10 2C10.3125 2 10.5938 2.19375 10.7031 2.4875L12.5594 7.44375L17.5156 9.3C17.8063 9.40625 18 9.6875 18 10C18 10.3125 17.8062 10.5938 17.5125 10.7031L12.5562 12.5594L10.7 17.5156C10.5937 17.8063 10.3125 18 10 18C9.6875 18 9.40625 17.8062 9.29688 17.5125L7.44375 12.5562L2.4875 10.7031C2.19375 10.5938 2 10.3125 2 10C2 9.6875 2.19375 9.40625 2.4875 9.29688L7.44375 7.44063L9.3 2.48438C9.40625 2.19375 9.6875 2 10 2ZM10 4.89062L8.72813 8.2875C8.65313 8.49062 8.49062 8.65 8.2875 8.72813L4.89062 10L8.2875 11.2719C8.49062 11.3469 8.65 11.5094 8.72813 11.7125L10 15.1094L11.2719 11.7125C11.3469 11.5094 11.5094 11.35 11.7125 11.2719L15.1094 10L11.7125 8.72813C11.5094 8.65313 11.35 8.49062 11.2719 8.2875L10 4.89062Z" fill="#FFD3FB"/>
</svg>
