<svg width="20" height="20" viewBox="0 0 20 20" fill="none" xmlns="http://www.w3.org/2000/svg">
<path d="M10.0031 1C10.2843 1 10.5437 1.15938 10.6718 1.40938L12.9687 5.91563L17.9656 6.70937C18.2437 6.75312 18.4749 6.95 18.5624 7.21875C18.6499 7.4875 18.5781 7.78125 18.3812 7.98125L14.8031 11.5594L15.5937 16.5562C15.6374 16.8344 15.5218 17.1156 15.2937 17.2812C15.0656 17.4469 14.7624 17.4719 14.5124 17.3438L10.0031 15.05L5.49369 17.3438C5.24369 17.4719 4.94057 17.4469 4.71244 17.2812C4.48432 17.1156 4.36869 16.8375 4.41244 16.5562L5.19994 11.5594L1.62494 7.98125C1.42494 7.78125 1.35619 7.4875 1.44369 7.21875C1.53119 6.95 1.75932 6.75312 2.04057 6.70937L7.03744 5.91563L9.33744 1.40938C9.46556 1.15938 9.72494 1 10.0062 1H10.0031ZM10.0031 3.4L8.19682 6.9375C8.08744 7.15 7.88432 7.3 7.64682 7.3375L3.72494 7.9625L6.53119 10.7719C6.69994 10.9406 6.77807 11.1812 6.74057 11.4187L6.12182 15.3406L9.66244 13.5406C9.87494 13.4312 10.1281 13.4312 10.3437 13.5406L13.8843 15.3406L13.2656 11.4187C13.2281 11.1812 13.3062 10.9406 13.4749 10.7719L16.2812 7.9625L12.3593 7.3375C12.1218 7.3 11.9187 7.15 11.8093 6.9375L10.0031 3.4Z" fill="#A8F8EB"/>
</svg>
