<svg width="20" height="20" viewBox="0 0 20 20" fill="none" xmlns="http://www.w3.org/2000/svg">
<path d="M7.5 8.5C8.16304 8.5 8.79893 8.23661 9.26777 7.76777C9.73661 7.29893 10 6.66304 10 6C10 5.33696 9.73661 4.70107 9.26777 4.23223C8.79893 3.76339 8.16304 3.5 7.5 3.5C6.83696 3.5 6.20107 3.76339 5.73223 4.23223C5.26339 4.70107 5 5.33696 5 6C5 6.66304 5.26339 7.29893 5.73223 7.76777C6.20107 8.23661 6.83696 8.5 7.5 8.5ZM7.5 2C8.56087 2 9.57828 2.42143 10.3284 3.17157C11.0786 3.92172 11.5 4.93913 11.5 6C11.5 7.06087 11.0786 8.07828 10.3284 8.82843C9.57828 9.57857 8.56087 10 7.5 10C6.43913 10 5.42172 9.57857 4.67157 8.82843C3.92143 8.07828 3.5 7.06087 3.5 6C3.5 4.93913 3.92143 3.92172 4.67157 3.17157C5.42172 2.42143 6.43913 2 7.5 2ZM6.5 13C4.29063 13 2.5 14.7906 2.5 17V17.25C2.5 17.6656 2.16562 18 1.75 18C1.33437 18 1 17.6656 1 17.25V17C1 13.9625 3.4625 11.5 6.5 11.5H8.5C11.5375 11.5 14 13.9625 14 17V17.25C14 17.6656 13.6656 18 13.25 18C12.8344 18 12.5 17.6656 12.5 17.25V17C12.5 14.7906 10.7094 13 8.5 13H6.5ZM11.7281 9.51875C12.0469 9.13438 12.3156 8.70625 12.5219 8.24687C12.8094 8.40937 13.1438 8.50313 13.5 8.50313C14.6031 8.50313 15.5 7.60625 15.5 6.50313C15.5 5.4 14.6031 4.50312 13.5 4.50312C13.2625 4.50312 13.0344 4.54375 12.825 4.61875C12.6969 4.125 12.5031 3.65938 12.2531 3.23125C12.6406 3.08438 13.0625 3.00312 13.5 3.00312C15.4344 3.00312 17 4.56875 17 6.50313C17 8.4375 15.4344 10 13.5 10C12.8531 10 12.2469 9.825 11.7281 9.51875ZM14.6219 13.6031C14.2937 13.0125 13.8812 12.4719 13.4 12H13.75C16.65 12 19 14.35 19 17.25C19 17.6656 18.6656 18 18.25 18C17.8344 18 17.5 17.6656 17.5 17.25C17.5 15.4781 16.2719 13.9937 14.6219 13.6031Z" fill="white"/>
</svg>
