<svg width="40" height="40" viewBox="0 0 40 40" fill="none" xmlns="http://www.w3.org/2000/svg">
<path d="M4.46877 6.56245C3.88752 5.97495 3.88752 5.02495 4.46877 4.43745C5.05002 3.84995 6.00627 3.8562 6.59377 4.43745L20.0313 17.875L33.4688 4.43745C34.0563 3.84995 35.0063 3.84995 35.5875 4.43745C36.1688 5.02495 36.175 5.97495 35.5875 6.5562L22.15 19.9937L35.5875 33.4312C36.175 34.0187 36.175 34.9687 35.5875 35.5499C35 36.1312 34.05 36.1374 33.4688 35.5499L20.0313 22.1124L6.59377 35.5499C6.00627 36.1374 5.05627 36.1374 4.47502 35.5499C3.89377 34.9624 3.88752 34.0125 4.47502 33.4312L17.9125 19.9937L4.47502 6.5562L4.46877 6.56245Z" fill="white" fill-opacity="0.4"/>
</svg>
